<?xml version="1.0" standalone="no"?>
<!DOCTYPE svg PUBLIC "-//W3C//DTD SVG 20010904//EN"
 "http://www.w3.org/TR/2001/REC-SVG-20010904/DTD/svg10.dtd">
<svg version="1.0" xmlns="http://www.w3.org/2000/svg"
 width="1086.000000pt" height="1086.000000pt" viewBox="0 0 1086.000000 1086.000000"
 preserveAspectRatio="xMidYMid meet">
<metadata>
Created by potrace 1.11, written by Peter Selinger 2001-2013
</metadata>
<g transform="translate(0.000000,1086.000000) scale(0.100000,-0.100000)"
fill="#000000" stroke="none">
<path d="M0 5425 l0 -4405 5400 0 5400 0 0 4405 0 4405 -5400 0 -5400 0 0
-4405z m1500 2156 c311 -44 824 -116 1140 -161 316 -44 683 -96 815 -115 132
-19 578 -82 990 -140 413 -58 772 -109 800 -113 41 -6 50 -11 56 -32 4 -14 7
-126 8 -250 1 -124 5 -466 11 -760 5 -294 14 -843 20 -1220 13 -912 19 -1257
30 -1935 18 -1063 21 -1491 10 -1470 -5 11 -98 225 -205 475 -108 250 -216
500 -240 555 -24 55 -107 249 -185 430 -143 332 -443 1029 -745 1728 -90 209
-166 381 -168 383 -2 3 -218 86 -478 185 -752 286 -1681 640 -1720 655 -34 14
-39 23 -122 222 -47 114 -221 531 -387 926 -165 396 -300 722 -300 726 0 4 24
3 53 -1 28 -5 306 -45 617 -88z m8170 -637 c-166 -395 -340 -812 -387 -926
-83 -199 -88 -208 -122 -222 -38 -15 -999 -381 -1735 -661 -242 -92 -445 -169
-452 -172 -14 -5 5 38 -314 -703 -663 -1539 -755 -1752 -796 -1845 -24 -55
-131 -305 -239 -555 -108 -250 -200 -464 -205 -475 -11 -21 -8 383 10 1465 11
640 15 952 30 1945 6 374 15 921 20 1215 6 294 10 636 11 760 1 124 4 236 8
250 8 28 -103 10 956 159 275 39 705 100 955 135 250 35 653 92 895 126 242
35 715 102 1050 149 336 48 611 84 613 81 1 -3 -133 -330 -298 -726z"/>
<path d="M3040 6547 c0 -2 16 -73 36 -158 20 -85 40 -170 44 -189 4 -19 29
-131 55 -248 38 -167 53 -216 68 -223 16 -9 309 -113 432 -154 35 -11 333
-114 657 -226 l96 -34 79 -105 c43 -58 166 -224 273 -370 l195 -264 6 84 c4
47 9 209 12 360 4 151 12 506 19 787 6 282 10 515 7 517 -2 3 -49 9 -104 15
-55 6 -280 31 -500 56 -220 25 -483 54 -585 65 -102 12 -243 27 -315 36 -71 8
-191 21 -265 29 -74 8 -152 18 -172 21 -21 3 -38 4 -38 1z"/>
<path d="M7860 6544 c-8 -2 -220 -26 -470 -54 -472 -52 -1178 -131 -1359 -152
l-104 -11 7 -271 c3 -149 9 -363 11 -476 3 -113 10 -382 15 -599 6 -217 12
-396 14 -398 2 -2 126 162 276 364 l271 368 122 41 c154 53 918 317 1012 350
l70 25 19 82 c10 45 51 227 92 404 41 178 74 325 74 328 0 5 -26 5 -50 -1z"/>
</g>
</svg>
